<?xml version="1.0" encoding="UTF-8" standalone="no"?>
<!DOCTYPE svg PUBLIC "-//W3C//DTD SVG 1.1//EN" "http://www.w3.org/Graphics/SVG/1.1/DTD/svg11.dtd">
<svg width="100%" height="100%" viewBox="0 0 33 110" version="1.1" xmlns="http://www.w3.org/2000/svg" xmlns:xlink="http://www.w3.org/1999/xlink" xml:space="preserve" xmlns:serif="http://www.serif.com/" style="fill-rule:evenodd;clip-rule:evenodd;stroke-linejoin:round;stroke-miterlimit:2;">
    <g transform="matrix(1,0,0,1,-215.664,-742.53)">
        <g id="Ebene-1" serif:id="Ebene 1">
            <g id="cold">
                <rect id="rect9627" x="215.66" y="742.53" width="110" height="110" style="fill-opacity:0;"/>
                <g id="g9527" transform="matrix(0.27387,0,0,0.27387,-93.661,602.62)">
                    <g id="g9475">
                        <path id="rect9214" d="M1186.2,539.47C1174.21,539.47 1164.58,549.139 1164.58,561.126L1164.58,788.626C1164.58,788.678 1164.58,788.73 1164.58,788.782C1151.41,797.083 1142.67,811.754 1142.67,828.47C1142.67,854.362 1163.65,875.345 1189.54,875.345C1215.44,875.345 1236.42,854.362 1236.42,828.47C1236.42,811.388 1227.29,796.446 1213.64,788.251L1213.64,561.131C1213.64,549.144 1204,539.475 1192.01,539.475L1186.2,539.475L1186.2,539.47Z" style="fill:url(#_Linear1);fill-rule:nonzero;"/>
                        <g id="g9287" transform="matrix(1,0,0,1,364.54,-8.7629)">
                            <path id="rect9210" d="M848.25,752.97C841.186,754.431 832.587,755.314 823.281,755.314C814.363,755.314 806.08,754.509 799.187,753.158L799.187,798.252C799.187,810.239 808.825,819.908 820.812,819.908L826.624,819.908C838.611,819.908 848.249,810.239 848.249,798.252L848.249,752.971L848.25,752.97Z" style="fill:url(#_Linear2);fill-rule:nonzero;"/>
                            <g id="path9212" transform="matrix(1.1758,0,0,1.1758,-574.57,-123.66)">
                                <path d="M1229.4,817.95C1229.4,839.97 1211.55,857.821 1189.53,857.821C1167.51,857.821 1149.66,839.97 1149.66,817.95C1149.66,795.93 1167.51,778.079 1189.53,778.079C1211.55,778.079 1229.4,795.93 1229.4,817.95Z" style="fill:url(#_Radial3);fill-rule:nonzero;"/>
                            </g>
                        </g>
                        <path id="path9219" d="M1186.2,538.47C1173.67,538.47 1163.58,548.603 1163.58,561.126L1163.58,788.286C1150.4,796.817 1141.67,811.618 1141.67,828.474C1141.67,854.906 1163.11,876.349 1189.54,876.349C1215.98,876.349 1237.42,854.906 1237.42,828.474C1237.42,811.253 1228.29,796.19 1214.64,787.755L1214.64,561.135C1214.64,548.612 1204.54,538.479 1192.01,538.479L1186.2,538.479L1186.2,538.47ZM1186.2,540.47L1192.01,540.47C1203.46,540.47 1212.64,549.675 1212.64,561.126L1212.64,788.809L1213.14,789.09C1226.5,797.11 1235.42,811.74 1235.42,828.465C1235.42,853.817 1214.89,874.34 1189.54,874.34C1164.19,874.34 1143.67,853.817 1143.67,828.465C1143.67,812.098 1152.22,797.745 1165.11,789.621L1165.58,789.339L1165.58,788.777C1165.58,788.735 1165.58,788.678 1165.58,788.621L1165.58,561.121C1165.58,549.67 1174.75,540.465 1186.2,540.465L1186.2,540.47Z" style="fill:rgb(51,51,51);fill-opacity:0.98;fill-rule:nonzero;"/>
                        <rect id="rect9355" x="1168.6" y="587.64" width="16.11" height="194.57" style="fill:url(#_Linear4);"/>
                    </g>
                    <g id="path9465" transform="matrix(1,0,0,1,118.21,-116.77)">
                        <path d="M1129,1008.4C1129,1014.9 1102.64,1020.17 1070.13,1020.17C1037.62,1020.17 1011.27,1014.9 1011.27,1008.4C1011.27,1001.9 1037.62,996.627 1070.13,996.627C1102.64,996.627 1129,1001.9 1129,1008.4Z" style="fill:url(#_Radial5);fill-rule:nonzero;"/>
                    </g>
                </g>
            </g>
        </g>
    </g>
    <defs>
        <linearGradient id="_Linear1" x1="0" y1="0" x2="1" y2="0" gradientUnits="userSpaceOnUse" gradientTransform="matrix(93.7,0,0,93.7,1142.7,707.41)"><stop offset="0" style="stop-color:rgb(208,208,208);stop-opacity:0.98"/><stop offset="1" style="stop-color:rgb(242,242,242);stop-opacity:0.98"/></linearGradient>
        <linearGradient id="_Linear2" x1="0" y1="0" x2="1" y2="0" gradientUnits="userSpaceOnUse" gradientTransform="matrix(-50.83,-0.88,0.88,-50.83,849.13,712.36)"><stop offset="0" style="stop-color:rgb(2,75,174);stop-opacity:0.98"/><stop offset="1" style="stop-color:rgb(62,143,235);stop-opacity:0.98"/></linearGradient>
        <radialGradient id="_Radial3" cx="0" cy="0" r="1" gradientUnits="userSpaceOnUse" gradientTransform="matrix(39.871,0,0,39.871,1179.9,806.77)"><stop offset="0" style="stop-color:rgb(53,132,225);stop-opacity:0.98"/><stop offset="1" style="stop-color:rgb(6,78,175);stop-opacity:0.98"/></radialGradient>
        <linearGradient id="_Linear4" x1="0" y1="0" x2="1" y2="0" gradientUnits="userSpaceOnUse" gradientTransform="matrix(15.8,0,0,15.8,1170.7,693.08)"><stop offset="0" style="stop-color:white;stop-opacity:0.98"/><stop offset="1" style="stop-color:white;stop-opacity:0"/></linearGradient>
        <radialGradient id="_Radial5" cx="0" cy="0" r="1" gradientUnits="userSpaceOnUse" gradientTransform="matrix(58.865,0,0,11.773,1070.1,1008.37)"><stop offset="0" style="stop-color:black;stop-opacity:0.5"/><stop offset="1" style="stop-color:black;stop-opacity:0"/></radialGradient>
    </defs>
</svg>
